# xmcd
#
# Track frame offsets: 
#        150
#        19402
#        35910
#        53480
#        80442
#        99565
#        122832
#        146207
#        174397
#        194117
#        212477
#        234387
#        254247
#
# Disc length: 3762 seconds
#
# Revision: 2
# Processed by: cddbd v1.5.1PL2 Copyright (c) Steve Scherf et al.
# Submitted via: ExactAudioCopy v0.90b4
#
DISCID=c30eb00d
DTITLE=Doug MacLeod - Whose Truth, Whose Lies?
DYEAR=2000
DGENRE=
TTITLE0=Whose Truth, Whose Lies?
TTITLE1=Plaquemine
TTITLE2='Splain It To Me
TTITLE3=Norfolk County Line
TTITLE4=My Black Pony
TTITLE5=Saint Louis On My Mind
TTITLE6=Can't Give Me Notin' (I Ain't Already Had Before)
TTITLE7=Unlonely
TTITLE8=Rise Up
TTITLE9=Sweet Ride
TTITLE10=Goin' Down Country
TTITLE11=You Won't Find Me
TTITLE12=Time For A Change
EXTD=AudioQuest AQ-CD1054
EXTT0=
EXTT1=
EXTT2=
EXTT3=
EXTT4=
EXTT5=
EXTT6=
EXTT7=
EXTT8=
EXTT9=
EXTT10=
EXTT11=
EXTT12=
PLAYORDER=
